<svg width="40" height="40" viewBox="0 0 40 40" fill="none" xmlns="http://www.w3.org/2000/svg">
<g id="icon">
<g id="Rectangle 12">
<path d="M0 4C0 1.79086 1.79086 0 4 0H40V40H4C1.79086 40 0 38.2091 0 36V4Z" fill="white"/>
<path d="M0.5 4C0.5 2.067 2.067 0.5 4 0.5H39.5V39.5H4C2.067 39.5 0.5 37.933 0.5 36V4Z" stroke="#00103D" stroke-opacity="0.12"/>
</g>
<path id="Vector" d="M27.7916 24.7009L25.6767 26.747C25.3646 27.0593 24.9508 27.1651 24.5478 27.1656C22.7657 27.1135 21.0811 26.2597 19.698 25.3829C17.4278 23.772 15.3447 21.7745 14.0373 19.3607C13.5359 18.3485 12.9475 17.057 13.0037 15.9272C13.0088 15.5022 13.1262 15.085 13.4331 14.8111L15.5479 12.7494C15.987 12.3851 16.4117 12.5111 16.6928 12.9354L18.3941 16.0822C18.5732 16.455 18.4705 16.8544 18.2033 17.1208L17.4242 17.8804C17.3761 17.9446 17.3454 18.0178 17.3447 18.0974C17.6434 19.2254 18.5486 20.2651 19.3482 20.9806C20.1478 21.6961 21.0072 22.6655 22.1229 22.895C22.2608 22.9325 22.4297 22.9457 22.5284 22.8562L23.4347 21.9572C23.7472 21.7262 24.1983 21.6133 24.5319 21.8021H24.5478L27.6166 23.5693C28.0672 23.8447 28.1141 24.377 27.7916 24.7009Z" fill="#EF7C00"/>
</g>
</svg>
