<svg width="19" height="30" viewBox="0 0 19 30" fill="none" xmlns="http://www.w3.org/2000/svg">
<path id="fb" d="M18.2609 0.842911C18.2609 0.62197 18.1734 0.410078 18.0178 0.253849C17.8621 0.0976202 17.651 0.00985146 17.4308 0.00985146H13.2806C11.1908 -0.0946294 9.14471 0.635298 7.58942 2.04015C6.03413 3.445 5.09609 5.41057 4.98024 7.50739V12.0059H0.83004C0.609899 12.0059 0.398776 12.0937 0.243113 12.2499C0.0874505 12.4061 0 12.618 0 12.839V17.1709C0 17.3918 0.0874505 17.6037 0.243113 17.7599C0.398776 17.9162 0.609899 18.0039 0.83004 18.0039H4.98024V29.1669C4.98024 29.3879 5.06769 29.5998 5.22335 29.756C5.37901 29.9122 5.59014 30 5.81028 30H10.7905C11.0107 30 11.2218 29.9122 11.3774 29.756C11.5331 29.5998 11.6206 29.3879 11.6206 29.1669V18.0039H15.97C16.1545 18.0066 16.3347 17.9474 16.4821 17.8358C16.6294 17.7241 16.7354 17.5664 16.7834 17.3875L17.9787 13.0556C18.0117 12.9325 18.0161 12.8034 17.9916 12.6783C17.9671 12.5533 17.9144 12.4355 17.8374 12.3341C17.7604 12.2327 17.6613 12.1504 17.5476 12.0935C17.434 12.0366 17.3088 12.0066 17.1818 12.0059H11.6206V7.50739C11.6618 7.09499 11.8548 6.71284 12.1618 6.43556C12.4687 6.15829 12.8677 6.0058 13.2806 6.00788H17.4308C17.651 6.00788 17.8621 5.92011 18.0178 5.76388C18.1734 5.60765 18.2609 5.39576 18.2609 5.17482V0.842911Z" fill="#EF7C00"/>
</svg>
