<svg width="26" height="25" viewBox="0 0 26 25" fill="none" xmlns="http://www.w3.org/2000/svg">
<g id="linkedin">
<path id="Vector" d="M5.76813 2.97092C5.76813 4.43309 4.79059 5.6915 3.01312 5.6915C1.34029 5.6915 0.260864 4.50469 0.260864 3.04251C0.260864 1.54178 1.30724 0.217285 3.0145 0.217285C4.72175 0.217285 5.73508 1.47019 5.76813 2.97092ZM0.260864 25V7.10136H5.76813V25H0.260864Z" fill="#EF7C00"/>
<path id="Vector_2" d="M8.52166 13.2191C8.52166 11.0919 8.45144 9.31448 8.38123 7.77933H13.3295L13.5746 10.1516H13.6792C14.3759 9.03498 16.0831 7.39795 18.9414 7.39795C22.4275 7.39795 25.0434 9.73165 25.0434 14.7529V24.9992H19.5362V15.5528C19.5362 13.3582 18.7005 11.684 16.7826 11.684C15.3204 11.684 14.5879 12.868 14.2038 13.8442C14.0633 14.1939 14.0289 14.6813 14.0289 15.1701V24.9992H8.52166V13.2191Z" fill="#EF7C00"/>
</g>
</svg>
