<svg width="40" height="40" viewBox="0 0 40 40" fill="none" xmlns="http://www.w3.org/2000/svg">
<g id="name">
<g id="Rectangle 11">
<path d="M0 4C0 1.79086 1.79086 0 4 0H40V40H4C1.79086 40 0 38.2091 0 36V4Z" fill="white"/>
<path d="M0.5 4C0.5 2.067 2.067 0.5 4 0.5H39.5V39.5H4C2.067 39.5 0.5 37.933 0.5 36V4Z" stroke="#00103D" stroke-opacity="0.12"/>
</g>
<path id="Vector" d="M19.5625 20.3151C21.6338 20.3151 23.3125 18.6778 23.3125 16.6576C23.3125 14.6373 21.6338 13 19.5625 13C17.4912 13 15.8125 14.6373 15.8125 16.6576C15.8125 18.6778 17.4912 20.3151 19.5625 20.3151ZM22.1875 21.2295H21.6982C21.0479 21.521 20.3242 21.6867 19.5625 21.6867C18.8008 21.6867 18.0801 21.521 17.4268 21.2295H16.9375C14.7637 21.2295 13 22.9497 13 25.07V26.2587C13 27.0159 13.6299 27.6303 14.4062 27.6303H24.7188C25.4951 27.6303 26.125 27.0159 26.125 26.2587V25.07C26.125 22.9497 24.3613 21.2295 22.1875 21.2295Z" fill="#EF7C00"/>
</g>
</svg>
