<svg width="30" height="19" viewBox="0 0 30 19" fill="none" xmlns="http://www.w3.org/2000/svg">
<path id="vk" d="M29.3122 1.97563C29.5218 1.2622 29.3122 0.739014 28.3211 0.739014H25.0379C24.2025 0.739014 23.8207 1.19162 23.6111 1.68873C23.6111 1.68873 21.9418 5.8604 19.5764 8.56532C18.8128 9.3524 18.464 9.60095 18.0478 9.60095C17.8397 9.60095 17.5373 9.3524 17.5373 8.63896V1.97563C17.5373 1.11951 17.2963 0.739014 16.6001 0.739014H11.441C10.92 0.739014 10.6056 1.13486 10.6056 1.51229C10.6056 2.32238 11.7883 2.50956 11.9096 4.79255V9.74517C11.9096 10.8299 11.7195 11.0278 11.3003 11.0278C10.1879 11.0278 7.48112 6.8408 5.87471 2.04775C5.56181 1.11644 5.24592 0.740549 4.40753 0.740549H1.12584C0.18714 0.740549 0 1.19316 0 1.69026C0 2.58321 1.11236 7.0019 5.18154 12.8459C7.89433 16.8366 11.7135 18.9999 15.1928 18.9999C17.2783 18.9999 17.5358 18.5197 17.5358 17.6912V14.6748C17.5358 13.7143 17.7349 13.521 18.3951 13.521C18.8802 13.521 19.7156 13.7726 21.6634 15.6951C23.8881 17.975 24.2564 18.9984 25.5065 18.9984H28.7882C29.7254 18.9984 30.194 18.5181 29.9245 17.5699C29.6295 16.6264 28.5666 15.2532 27.1563 13.6284C26.3898 12.7017 25.2445 11.7044 24.8956 11.2058C24.4091 10.5629 24.5498 10.2791 24.8956 9.70835C24.8971 9.70989 28.896 3.93796 29.3122 1.97563Z" fill="#EF7C00"/>
</svg>
